<?xml version="1.0" standalone="no"?>
<!DOCTYPE svg PUBLIC "-//W3C//DTD SVG 20010904//EN"
 "http://www.w3.org/TR/2001/REC-SVG-20010904/DTD/svg10.dtd">
<svg version="1.0" xmlns="http://www.w3.org/2000/svg"
 width="188.000000pt" height="125.000000pt" viewBox="0 0 188.000000 125.000000"
 preserveAspectRatio="xMidYMid meet">

<g transform="translate(0.000000,125.000000) scale(0.100000,-0.100000)"
fill="#000000" stroke="none">
<path d="M770 943 c-34 -12 -60 -48 -71 -98 -9 -43 -16 -53 -40 -62 -52 -20
-61 -62 -57 -254 l3 -169 28 -27 27 -28 236 0 236 0 27 30 c22 25 34 64 70
220 24 104 44 203 43 219 -2 58 -29 71 -264 126 -119 27 -218 50 -220 49 -2 0
-10 -3 -18 -6z m226 -93 c99 -22 189 -45 202 -50 26 -11 28 -40 8 -115 l-13
-50 -5 54 c-4 43 -11 60 -32 78 -26 22 -33 23 -222 23 l-194 0 6 28 c15 59 23
72 47 72 14 0 105 -18 203 -40z m129 -300 l0 -185 -230 0 -230 0 -3 179 c-2
137 1 181 10 188 7 4 112 7 233 5 l220 -2 0 -185z"/>
<path d="M684 707 c-2 -7 -3 -55 -2 -105 l3 -92 45 30 c56 37 76 37 119 0 18
-15 38 -26 45 -24 6 3 31 30 56 60 24 30 51 54 60 54 9 0 35 -26 58 -57 l43
-58 -3 100 -3 100 -208 3 c-166 2 -208 0 -213 -11z m105 -41 c16 -20 -3 -56
-29 -56 -26 0 -45 36 -29 56 6 8 19 14 29 14 10 0 23 -6 29 -14z"/>
</g>
</svg>
